nColumns=19
nRows=55
DataType=double
version=3
OpenSimVersion=4.1
endheader
time	ground_force_calcn_r_vx	ground_force_calcn_r_vy	ground_force_calcn_r_vz	ground_force_calcn_r_px	ground_force_calcn_r_py	ground_force_calcn_r_pz	ground_force_calcn_r_mx	ground_force_calcn_r_my	ground_force_calcn_r_mz	ground_force_calcn_l_vx	ground_force_calcn_l_vy	ground_force_calcn_l_vz	ground_force_calcn_l_px	ground_force_calcn_l_py	ground_force_calcn_l_pz	ground_force_calcn_l_mx	ground_force_calcn_l_my	ground_force_calcn_l_mz
0.016667	0	0	0	0	0	0	0	0	0	-170.136	1491.58	-236.804	1.04448	0	-0.341138	-2.20529	19.3337	-3.06944
0.025	0	0	0	0	0	0	0	0	0	-142.836	1650.48	-152.411	1.01395	0	-0.319732	3.07549	-35.5376	3.28167
0.033333	0	0	0	0	0	0	0	0	0	-101.169	1765.46	-88.1453	0.987334	0	-0.311256	3.15445	-55.0467	2.74836
0.041667	0	0	0	0	0	0	0	0	0	-52.5274	1807.26	-57.7663	0.961551	0	-0.311897	1.11155	-38.2439	1.22241
0.05	0	0	0	0	0	0	0	0	0	-6.10057	1792.15	-46.6344	0.936389	0	-0.314563	0.035503	-10.4297	0.271395
0.058333	0	0	0	0	0	0	0	0	0	33.0958	1745.77	-35.8158	0.911854	0	-0.315506	0.0601286	3.17173	-0.0650701
0.066667	0	0	0	0	0	0	0	0	0	67.8603	1673.26	-23.0822	0.887779	0	-0.315371	-0.0423588	-1.04446	0.014408
0.075	0	0	0	0	0	0	0	0	0	101.924	1565.88	-18.6974	0.863621	0	-0.316219	-0.596407	-9.16271	0.109407
0.083333	0	0	0	0	0	0	0	0	0	134.456	1422.41	-27.0502	0.838336	0	-0.318137	-0.913434	-9.6632	0.183767
0.091667	0	0	0	0	0	0	0	0	0	161.781	1250.62	-40.1627	0.811677	0	-0.31897	-0.509083	-3.93538	0.126382
0.1	0	0	0	0	0	0	0	0	0	183.603	1055.44	-48.6842	0.782855	0	-0.317244	0.204416	1.17508	-0.054203
0.108333	0	0	0	0	0	0	0	0	0	202.087	838.451	-51.9713	0.749344	0	-0.313992	0.909626	3.774	-0.233931
0.116667	0	0	0	0	0	0	0	0	0	207.679	614.045	-53.932	0.711891	0	-0.310743	2.0246	5.98615	-0.525768
0.125	0	0	0	0	0	0	0	0	0	185.362	410.827	-53.6123	0.678199	0	-0.308264	3.20953	7.11346	-0.928295
0.133333	0	0	0	0	0	0	0	0	0	138.888	252.73	-45.6464	0.659207	0	-0.309751	2.32619	4.23291	-0.76452
0.141667	0	0	0	0	0	0	0	0	0	87.2282	147.57	-29.3929	0.665617	0	-0.32087	-1.29399	-2.18913	0.436028
0.15	0	0	0	0	0	0	0	0	0	46.3375	83.6598	-12.5663	0.691184	0	-0.339959	-4.58203	-8.2726	1.2426
0.158333	0	0	0	0	0	0	0	0	0	20.833	42.1976	-3.58785	0.694884	0	-0.353296	-4.48441	-9.08328	0.772304
0.166667	0	0	0	0	0	0	0	0	0	7.687	15.2328	-2.71141	0.623746	0	-0.334788	-1.99172	-3.94684	0.702531
0.175	0	0	0	0	0	0	0	0	0	0	0	0	0	0	0	0	0	0
0.183333	0	0	0	0	0	0	0	0	0	0	0	0	0	0	0	0	0	0
0.191667	0	0	0	0	0	0	0	0	0	1.97303	11.1669	3.23052	-0.000605361	0	-0.00138624	1.21773e-19	6.89205e-19	1.99384e-19
0.2	0	0	0	0	0	0	0	0	0	1.61725	11.8636	3.79229	-0.000605379	0	-0.00138625	-4.07673e-19	-2.99056e-18	-9.55951e-19
0.208333	0	0	0	0	0	0	0	0	0	0	0	0	0	0	0	0	0	0
0.216667	0	0	0	0	0	0	0	0	0	0	0	0	0	0	0	0	0	0
0.225	0	0	0	0	0	0	0	0	0	0	0	0	0	0	0	0	0	0
0.233333	0	0	0	0	0	0	0	0	0	0	0	0	0	0	0	0	0	0
0.241667	0	0	0	0	0	0	0	0	0	0	0	0	0	0	0	0	0	0
0.25	0	0	0	0	0	0	0	0	0	0	0	0	0	0	0	0	0	0
0.258333	-1.76424	19.0986	-5.1741	1.09539	0	-0.217466	0.168511	-1.8242	0.494203	0	0	0	0	0	0	0	0	0
0.266667	-11.0533	54.0484	-6.18321	1.14205	0	-0.308159	-0.951312	4.65172	-0.532163	0	0	0	0	0	0	0	0	0
0.275	-24.7894	149.07	-5.17648	1.16027	0	-0.334111	-2.31793	13.9388	-0.484027	0	0	0	0	0	0	0	0	0
0.283333	-38.8766	350.461	0.196048	1.16887	0	-0.336051	-2.21211	19.9414	0.0111552	0	0	0	0	0	0	0	0	0
0.291667	-53.2718	665.673	15.9766	1.16616	0	-0.33464	-1.08517	13.56	0.325451	0	0	0	0	0	0	0	0	0
0.3	-81.3896	1002.88	44.1576	1.157	0	-0.332403	0.500705	-6.16967	-0.271655	0	0	0	0	0	0	0	0	0
0.308333	-136.556	1225.87	73.7309	1.14557	0	-0.32958	2.86817	-25.7478	-1.54862	0	0	0	0	0	0	0	0	0
0.316667	-205.026	1308.26	85.8499	1.13128	0	-0.328825	4.31826	-27.5547	-1.80817	0	0	0	0	0	0	0	0	0
0.325	-251.648	1350.76	73.5776	1.11015	0	-0.333124	1.70148	-9.13295	-0.497482	0	0	0	0	0	0	0	0	0
0.333333	-252.848	1442.85	52.2596	1.08205	0	-0.337799	-2.29865	13.117	0.475094	0	0	0	0	0	0	0	0	0
0.341667	-213.121	1588.11	42.9594	1.05147	0	-0.336378	-2.75882	20.5579	0.556104	0	0	0	0	0	0	0	0	0
0.35	-157.415	1732.73	48.3157	1.02248	0	-0.331763	-1.0144	11.1659	0.311351	0	0	0	0	0	0	0	0	0
0.358333	-102.046	1823.08	52.7659	0.995328	0	-0.329049	-0.021234	0.379351	0.0109796	0	0	0	0	0	0	0	0	0
0.366667	-49.6536	1843.26	45.4776	0.968527	0	-0.329106	-0.0223043	0.827986	0.0204284	0	0	0	0	0	0	0	0	0
0.375	-4.01054	1810.36	33.7462	0.942081	0	-0.32955	-0.0189295	8.54479	0.15928	0	0	0	0	0	0	0	0	0
0.383333	31.3359	1747.08	30.554	0.916713	0	-0.328048	0.217168	12.1078	0.211749	0	0	0	0	0	0	0	0	0
0.391667	60.7534	1658.06	36.6782	0.892753	0	-0.325133	0.324301	8.85067	0.195788	0	0	0	0	0	0	0	0	0
0.4	90.6556	1537.71	42.4843	0.869349	0	-0.323434	0.33259	5.64142	0.155863	0	0	0	0	0	0	0	0	0
0.408333	120.525	1387.28	43.8689	0.84554	0	-0.324147	0.541648	6.23454	0.197151	0	0	0	0	0	0	0	0	0
0.416667	145.676	1216.79	47.2425	0.821475	0	-0.325662	0.668608	5.5847	0.216829	0	0	0	0	0	0	0	0	0
0.425	164.018	1034	57.2024	0.796752	0	-0.326375	-0.177334	-1.11795	-0.0618467	0	0	0	0	0	0	0	0	0
0.433333	178.217	836.055	66.7804	0.767882	0	-0.327166	-2.01027	-9.43058	-0.753273	0	0	0	0	0	0	0	0	0
0.441667	185.614	626.324	64.9421	0.72995	0	-0.329577	-3.16212	-10.6701	-1.10636	0	0	0	0	0	0	0	0	0
0.45	173.961	429.897	50.461	0.685632	0	-0.330988	-1.619	-4.00092	-0.469625	0	0	0	0	0	0	0	0	0
0.458333	139.4	273.924	33.1897	0.652222	0	-0.324863	1.39511	2.74141	0.33216	0	0	0	0	0	0	0	0	0
0.466667	94.7699	167.594	21.9806	0.655456	0	-0.307841	2.34894	4.15393	0.544803	0	0	0	0	0	0	0	0	0
